<svg xmlns="http://www.w3.org/2000/svg" viewBox="0 0 512 512">
  <path d="M256 8.33C119.216 8.33 8.33 119.214 8.33 256S119.215 503.67 256 503.67 503.67 392.786 503.67 256C503.673 119.215 392.787 8.33 256 8.33z" fill="#494A58"/>
  <path d="M63.856 256c0-127.396 96.194-232.31 219.907-246.113C274.648 8.87 265.387 8.33 256 8.33 119.215 8.33 8.33 119.214 8.33 256S119.215 503.67 256 503.67c9.387 0 18.648-.54 27.763-1.557C160.05 488.31 63.856 383.398 63.856 256z" opacity=".1"/>
  <path fill="#FFF" d="M386.8 297.462h-97.817v57.336L119.403 256l169.58-98.798v57.336H386.8"/>
  <path d="M256 512c-68.38 0-132.667-26.63-181.02-74.98C26.63 388.667 0 324.38 0 256c0-68.82 26.936-133.406 75.84-181.86 3.267-3.237 8.54-3.213 11.778.054 3.237 3.268 3.213 8.54-.056 11.78-45.722 45.3-70.904 105.682-70.904 170.023 0 63.93 24.896 124.034 70.102 169.24 45.206 45.205 105.31 70.1 169.24 70.1 57.105 0 112.403-20.45 155.707-57.582 3.49-2.995 8.75-2.59 11.744.9s2.6 8.75-.9 11.746C376.23 490.13 317.08 512 256 512zm184.906-82.92c-1.972 0-3.952-.697-5.54-2.113-3.434-3.062-3.735-8.327-.674-11.76 39.112-43.865 60.65-100.406 60.65-159.206 0-63.93-24.896-124.03-70.102-169.24-45.205-45.2-105.31-70.1-169.24-70.1-52.458 0-102.263 16.67-144.032 48.19-3.67 2.77-8.894 2.04-11.665-1.63-2.772-3.67-2.04-8.89 1.63-11.66C146.617 17.828 199.893 0 256 0c68.38 0 132.667 26.63 181.02 74.98C485.37 123.332 512 187.62 512 256c0 62.894-23.04 123.372-64.876 170.293-1.644 1.846-3.926 2.786-6.218 2.786zm-151.923-65.953c-1.45 0-2.897-.378-4.192-1.133l-169.57-98.8c-2.56-1.492-4.133-4.232-4.133-7.195 0-2.97 1.575-5.71 4.137-7.2L284.8 150c2.573-1.5 5.755-1.51 8.34-.027 2.585 1.486 4.18 4.24 4.18 7.22V206.2h89.48c4.6 0 8.33 3.728 8.33 8.328v82.923c0 4.6-3.73 8.33-8.33 8.33h-89.49v49.01c0 2.987-1.593 5.74-4.178 7.22-1.286.747-2.72 1.11-4.15 1.11zM135.948 256l144.706 84.306V297.46c0-4.6 3.73-8.328 8.33-8.328h89.488v-66.265h-89.49c-4.6 0-8.328-3.73-8.328-8.33v-42.844L135.948 256z"/>
</svg>
