<svg xmlns="http://www.w3.org/2000/svg" viewBox="0 0 512 512">
  <path d="M437.02 74.98C388.666 26.63 324.38 0 256 0S123.333 26.628 74.98 74.98C26.63 123.334 0 187.62 0 256s26.628 132.667 74.98 181.02C123.334 485.37 187.62 512 256 512s132.667-26.628 181.02-74.98S512 324.38 512 256s-26.628-132.667-74.98-181.02zM256 495.833c-132.244 0-239.832-107.59-239.832-239.833S123.756 16.168 256 16.168 495.832 123.756 495.832 256 388.244 495.832 256 495.832z" fill="#494A58" />
  <path d="M351.44 368.197c-2.86-3.43-7.958-3.893-11.387-1.036-21.997 18.34-51.848 28.43-84.053 28.43s-62.057-10.09-84.053-28.42c-3.43-2.85-8.526-2.39-11.386 1.04-2.85 3.43-2.39 8.53 1.04 11.39 24.9 20.75 58.43 32.18 94.41 32.18s69.51-11.43 94.41-32.175c3.43-2.86 3.9-7.956 1.04-11.386z" fill="#494A58"/>
  <path d="M468.884 234.442c0-34.176-27.803-61.98-61.98-61.98-16.93 0-33.182 7.06-44.8 19.174-27.526-17.51-61.328-28.388-98.02-29.79V110.92l17.625-5.875c5.03 18.272 22.6 31.404 42.84 29.508 19.49-1.826 35.06-17.794 36.44-37.33 1.66-23.597-17.07-43.33-40.32-43.33-20.26 0-37.08 14.982-39.98 34.447l-27.26 9.085c-3.3 1.1-5.53 4.19-5.53 7.67v56.75c-36.7 1.4-70.5 12.28-98.03 29.79-11.614-12.114-27.86-19.173-44.796-19.173-34.176 0-61.98 27.803-61.98 61.98 0 25.055 15.305 47.604 37.993 57.154-.88 5.997-1.343 12.103-1.343 18.297 0 81.724 79.06 148.21 176.24 148.21 49.57 0 94.423-17.304 126.475-45.102 3.496-3.03 3.676-8.39.405-11.66l-.1-.1c-2.954-2.95-7.69-3.13-10.845-.39-29.18 25.3-70.36 41.1-115.93 41.1-88.26 0-160.07-59.23-160.07-132.04s71.81-132.05 160.07-132.05S416.06 237.1 416.06 309.9c0 22.91-7.11 44.47-19.602 63.27-2.085 3.14-1.617 7.32 1.047 9.98l.115.12c3.58 3.58 9.515 2.948 12.316-1.27 14.197-21.35 22.29-45.94 22.29-72.09 0-6.195-.46-12.3-1.34-18.297 22.69-9.55 37.994-32.1 37.994-57.156zm-148.21-164.38c13.373 0 24.253 10.88 24.253 24.254s-10.88 24.253-24.253 24.253-24.253-10.88-24.253-24.26 10.88-24.25 24.26-24.25zM84.592 275.41c-15.23-7.656-25.308-23.483-25.308-40.965 0-25.26 20.55-45.81 45.81-45.81 11.895 0 22.975 4.454 31.404 12.435-25.233 19.61-43.654 45.33-51.906 74.34zm342.816 0c-8.252-29.008-26.67-54.728-51.905-74.34 8.43-7.98 19.513-12.436 31.402-12.436 25.26 0 45.81 20.55 45.81 45.81 0 17.482-10.08 33.31-25.307 40.966z" fill="#494A58"/>
  <path d="M180.547 237.137c-22.29 0-40.42 18.132-40.42 40.42 0 22.29 18.13 40.422 40.42 40.422s40.42-18.14 40.42-40.43-18.13-40.42-40.42-40.42zm0 64.674c-13.373 0-24.253-10.87-24.253-24.25 0-13.37 10.88-24.25 24.253-24.25s24.253 10.88 24.253 24.25-10.88 24.26-24.253 24.26zm150.906-64.67c-22.29 0-40.42 18.13-40.42 40.42 0 22.29 18.13 40.42 40.42 40.42s40.42-18.13 40.42-40.42c0-22.29-18.132-40.42-40.42-40.42zm0 64.68c-13.373 0-24.253-10.87-24.253-24.25 0-13.37 10.88-24.25 24.253-24.25s24.253 10.88 24.253 24.26-10.88 24.255-24.253 24.255z" fill="#494A58" />
</svg>
