<svg xmlns="http://www.w3.org/2000/svg" viewBox="0 0 512.001 512.001">
  <path d="M256 503.67c136.785 0 247.67-110.885 247.67-247.67S392.787 8.33 256 8.33 8.33 119.214 8.33 256 119.215 503.67 256 503.67z" fill="#494A58"/>
  <path fill="#FFF" d="M125.2 214.538h97.82v-57.336L392.597 256l-169.58 98.798v-57.336H125.2"/>
  <path d="M74.96 256c0-125.487 93.328-229.16 214.356-245.434C278.418 9.1 267.3 8.33 256 8.33 119.215 8.33 8.33 119.214 8.33 256S119.215 503.67 256 503.67c11.3 0 22.418-.772 33.316-2.238C168.288 485.16 74.96 381.486 74.96 256z" opacity=".1"/>
  <path d="M256 495.342c-50.996 0-99.68-15.833-140.787-45.788-3.717-2.71-8.93-1.892-11.637 1.827-2.71 3.72-1.89 8.93 1.827 11.64C149.38 495.06 201.455 512 256 512c68.38 0 132.668-26.628 181.02-74.98C485.37 388.67 512 324.38 512 256.003c0-51.375-15.163-100.935-43.85-143.32-2.58-3.808-7.756-4.807-11.567-2.23-3.81 2.58-4.807 7.757-2.23 11.567 26.816 39.616 40.99 85.947 40.99 133.98 0 63.932-24.897 124.036-70.103 169.24-45.204 45.206-105.308 70.102-169.24 70.102zm-165.56-66.51c-23.08-22.113-41.228-48.114-53.945-77.28C23.333 321.367 16.66 289.22 16.66 256c0-63.93 24.895-124.035 70.1-169.24C131.968 41.554 192.07 16.658 256 16.658c67.98 0 133 29.082 178.386 79.79 3.068 3.427 8.33 3.72 11.762.65 3.427-3.067 3.72-8.332.65-11.76C398.258 31.106 328.714 0 256 0 187.62 0 123.334 26.63 74.982 74.98 26.63 123.333.002 187.62.002 256c0 35.52 7.14 69.91 21.223 102.21 13.602 31.196 33.013 59.003 57.69 82.65 1.615 1.548 3.69 2.315 5.762 2.315 2.19 0 4.38-.86 6.015-2.566 3.182-3.33 3.07-8.6-.252-11.78z"/>
  <path d="M218.868 362.02c2.565 1.474 5.788 1.465 8.343-.024l169.58-98.8c2.57-1.492 4.14-4.232 4.14-7.195 0-2.96-1.57-5.7-4.132-7.19l-169.58-98.8c-2.574-1.5-5.76-1.51-8.34-.02-2.585 1.486-4.18 4.24-4.18 7.22v49.008H125.2c-4.6 0-8.33 3.73-8.33 8.33v82.923c0 4.6 3.73 8.33 8.33 8.33h89.49v49c0 2.98 1.594 5.735 4.178 7.22zm-85.34-72.887v-66.265h89.49c4.6 0 8.33-3.73 8.33-8.33v-42.844L376.052 256l-144.705 84.31v-42.845c0-4.6-3.728-8.33-8.33-8.33H133.53z"/>
</svg>
