<svg xmlns="http://www.w3.org/2000/svg" viewBox="0 0 512 512">
  <path d="M225.87 400.52c-58.314 0-105.756-47.44-105.756-105.755L77.934 9.04h-60.26v285.725c0 114.8 93.397 208.196 208.196 208.196h60.26l-60.26-102.44z" fill="#515262"/>
  <path d="M225.87 400.52c-58.314 0-105.756-47.44-105.756-105.755L77.934 9.04h-60.26v285.725c0 114.8 93.397 208.196 208.196 208.196h60.26l-60.26-102.44z" opacity=".1"/>
  <path d="M286.13 502.96c-114.8 0-208.196-93.396-208.196-208.195V9.04h102.44v285.725c0 58.314 47.442 105.756 105.756 105.756s105.756-47.44 105.756-105.75V9.04h102.44v285.725c0 114.8-93.397 208.196-208.196 208.196z" fill="#515262"/>
  <path d="M434.325 427.654c-3.335 3.716-3.026 9.43.688 12.764 1.727 1.55 3.884 2.313 6.036 2.313 2.47 0 4.94-1.01 6.72-3 35.85-39.93 55.59-91.41 55.59-144.96V9.04c0-4.993-4.05-9.04-9.04-9.04H391.88c-4.99 0-9.037 4.047-9.037 9.04v285.725c0 53.33-43.387 96.717-96.717 96.717s-96.717-43.387-96.717-96.717V9.04c0-4.993-4.05-9.04-9.04-9.04H17.67c-4.99 0-9.04 4.047-9.04 9.04v285.725C8.634 414.55 106.088 512 225.87 512h60.26c49.11 0 95.48-16.057 134.09-46.432 3.924-3.086 4.602-8.77 1.516-12.693-3.088-3.924-8.77-4.6-12.693-1.515-35.394 27.845-77.897 42.562-122.915 42.562-109.816 0-199.158-89.34-199.158-199.158V121.47c0-4.992-4.047-9.04-9.04-9.04-4.99 0-9.038 4.048-9.038 9.04v173.294c0 31.077 6.74 62.177 19.728 90.413 12.366 26.884 30.246 51.162 52.235 70.967 13.952 12.566 29.56 23.356 46.257 31.947.275.15.552.28.827.42 1.14.58 2.29 1.16 3.45 1.72l1.23.6c.34.164.68.334 1.02.495-94.55-15.44-166.94-97.7-166.94-196.553V18.08h42.18v67.237c0 4.992 4.045 9.04 9.04 9.04 4.99 0 9.04-4.048 9.04-9.04v-67.24h84.36v276.688c0 63.297 51.495 114.795 114.794 114.795 63.297 0 114.795-51.496 114.795-114.795V18.078h84.363v276.687c0 49.086-18.097 96.28-50.96 132.89z"/>
</svg>
